<?xml version="1.0" encoding="utf-8"?>
<!-- Simple hospital SVG with white fill to sit on colored avatar backgrounds -->
<svg xmlns="http://www.w3.org/2000/svg" viewBox="0 0 24 24" width="24" height="24"
    aria-hidden="true">
    <title>Hospital</title>
    <g fill="#FFFFFF">
        <path d="M3 3h18v18H3z" fill="none" />
        <path
            d="M21 10h-3V7a1 1 0 0 0-1-1h-2V4h-4v2H8a1 1 0 0 0-1 1v3H4v9h16v-9zM9 9V7h6v2H9zm9 8H6v-5h12v5z" />
        <path
            d="M12 12.5c-.28 0-.5.22-.5.5V14h-1c-.28 0-.5.22-.5.5s.22.5.5.5h1v1c0 .28.22.5.5.5s.5-.22.5-.5v-1h1c.28 0 .5-.22.5-.5s-.22-.5-.5-.5h-1v-1c0-.28-.22-.5-.5-.5z" />
    </g>
</svg>